<?xml version="1.0" encoding="utf-8"?>
<!-- Generator: Adobe Illustrator 26.4.1, SVG Export Plug-In . SVG Version: 6.00 Build 0)  -->
<svg version="1.1" id="Layer_1" xmlns="http://www.w3.org/2000/svg" xmlns:xlink="http://www.w3.org/1999/xlink" x="0px" y="0px"
	 viewBox="0 0 94.13 70.29" style="enable-background:new 0 0 94.13 70.29;" xml:space="preserve">
<style type="text/css">
	.st0{fill:#EE204F;}
</style>
<g>
	<g>
		<polygon class="st0" points="10.67,15.25 10.67,53.95 22.24,45.67 22.24,22.41 		"/>
		<path class="st0" d="M33.74,54.02h-6.65l-4.76,10.64h33.72c-5.53,0-10.41-1.24-14.66-3.74C38.34,59.14,35.8,56.83,33.74,54.02z"/>
		<path class="st0" d="M28.51,41.19l-6.27,4.49v8.34h4.84l3.03-6.77C29.39,45.32,28.86,43.3,28.51,41.19z"/>
		<polygon class="st0" points="22.24,18.33 22.24,22.41 32.83,28.96 		"/>
		<polygon class="st0" points="10.67,6.69 22.24,18.33 22.24,6.69 		"/>
		<path class="st0" d="M59.22,28.41c0.49,0.53,5.37-2.44,10.27-5.41c-0.82-1.18-1.79-2.23-2.9-3.14
			C62.66,23.88,58.75,27.89,59.22,28.41z"/>
		<path class="st0" d="M83.47,26.4c-0.79-3.3-2-6.23-3.65-8.82c-0.4-0.63-5.37,2.4-10.33,5.42c0.72,1.03,1.33,2.16,1.83,3.4H83.47z"
			/>
		<path class="st0" d="M65.44,19.01c0.4,0.27,0.77,0.55,1.14,0.85c4-4.1,8.01-8.21,7.44-8.65c-1.59-1.24-3.31-2.27-5.17-3.1
			C66.9,7.24,64.8,6.6,62.55,6.19c-2.04-0.37-4.21-0.56-6.51-0.56c-5.58,0-10.48,1.25-14.7,3.74c-2.09,1.23,2,5.06,6.37,9.16
			c2.43-1.48,5.15-2.22,8.17-2.22C59.6,16.3,62.79,17.2,65.44,19.01z"/>
		<path class="st0" d="M55.76,29.42c1.17-2.27-3.58-6.72-8.04-10.9c-0.04,0.03-0.09,0.05-0.13,0.08c-2.46,1.53-4.38,3.72-5.75,6.57
			c-0.96,1.99-1.58,4.22-1.87,6.69C46.91,31.66,54.53,31.79,55.76,29.42z"/>
		<path class="st0" d="M65.45,51.27c1.48-1.01,2.75-2.23,3.79-3.65c-8.41-1.32-17.4-4.73-17.4-4.73S59.18,47.11,65.45,51.27z"/>
		<path class="st0" d="M61.02,53.32c-1.58,0.44-3.3,0.67-5.14,0.67c-3.07,0-5.83-0.77-8.29-2.3c-2.46-1.53-4.38-3.72-5.75-6.57
			c-1.37-2.85-2.05-6.16-2.05-9.93c0-1.15,0.06-2.26,0.19-3.33c-6.24,0.17-11.93,0.6-11.93,3.33c0,2.08,0.16,4.08,0.47,6l6.34-4.53
			l-4.74,10.6c0.41,1.1,0.89,2.17,1.42,3.21c0.66,1.27,1.39,2.45,2.2,3.56l38.05,3.98h1.61c-1.2-0.88-6.54-5.79-7.94-6.72
			c0,0,0,0-0.01,0C64.11,52.19,62.63,52.87,61.02,53.32z"/>
		<path class="st0" d="M69.75,46.91c-0.16,0.25-0.33,0.48-0.5,0.72c6.76,1.06,13.16,0.77,14.22-3.74H71.31
			C70.88,44.97,70.35,45.98,69.75,46.91z"/>
	</g>
</g>
</svg>
